<svg width="1711" height="1411" viewBox="0 0 1711 1411" fill="none" xmlns="http://www.w3.org/2000/svg">
<path d="M19.5 387.133C19.5 237.74 140.607 116.633 290 116.633H1421C1570.39 116.633 1691.5 237.74 1691.5 387.133V1120.13C1691.5 1269.53 1570.39 1390.63 1421 1390.63H290C140.607 1390.63 19.5 1269.53 19.5 1120.13V387.133Z" fill="white" stroke="#243A79" stroke-width="39"/>
<path d="M440.162 831.017C400.762 821.955 327.084 815.257 254.588 820.379C247.102 814.075 237.252 809.347 227.796 809.347C208.096 809.741 206.52 815.651 206.52 825.895C130.084 837.715 64.286 865.689 54.436 922.425C52.466 933.851 63.104 930.305 64.68 921.243C69.802 890.117 130.872 873.963 204.156 867.659C197.852 967.341 185.244 1210.83 259.71 1208.86C284.926 1208.47 261.286 1189.56 259.71 1127.31C258.134 1060.72 266.802 916.515 269.56 864.507C337.722 863.719 405.49 869.235 442.526 877.903C461.044 882.237 473.652 895.239 475.622 882.237C477.986 869.629 462.62 836.139 440.162 831.017ZM461.998 966.947C443.874 966.947 410.778 1055.6 400.534 1107.21C399.746 1096.18 399.352 1083.57 399.352 1068.99C399.352 1039.05 407.232 1019.35 407.232 1003.2C407.232 986.647 395.018 972.857 368.62 972.857C355.224 972.857 350.102 1031.56 350.102 1071.75C350.102 1223.84 414.718 1204.14 414.718 1193.5C414.718 1186.8 408.808 1179.31 404.474 1150.55C407.626 1094.6 453.33 1003.59 453.33 1003.59C453.33 1003.59 446.632 1037.47 446.632 1046.14C446.632 1054.81 461.21 1062.69 481.304 1062.69C501.004 1062.69 509.278 1031.17 509.278 998.467C509.278 965.765 483.668 966.947 461.998 966.947ZM774.483 1048.51C771.725 1057.17 728.385 1181.68 720.111 1181.68C707.109 1181.68 709.473 1106.03 708.291 1079.24C708.291 1077.27 708.291 1075.3 708.291 1072.93C708.291 1064.66 698.441 1053.63 674.407 1053.63C650.767 1053.63 650.767 1067.81 650.767 1075.69C650.767 1096.18 625.945 1178.53 614.125 1178.53C602.305 1178.53 600.729 1154.89 600.729 1140.31C600.729 1067.81 635.007 997.679 673.619 997.679C688.197 997.679 690.955 1029.59 690.955 1038.66C690.955 1047.32 705.139 1042.6 705.139 1037.08C705.139 979.555 676.377 979.555 635.795 979.555C577.483 979.555 549.115 1063.87 549.115 1115.49C549.115 1170.25 574.331 1191.13 605.457 1191.13C636.583 1191.13 651.555 1131.25 654.707 1131.25C657.465 1131.25 666.527 1208.08 703.563 1208.08C706.321 1208.08 708.685 1207.68 709.867 1206.89C743.357 1195.07 781.969 1059.54 783.939 1050.48C785.909 1040.63 776.847 1040.23 774.483 1048.51ZM1377.04 860.173C1378.22 879.479 1353.4 1042.99 1356.94 1115.09C1360.09 1186.8 1399.1 1223.84 1421.16 1222.65C1443.62 1221.87 1410.92 1215.56 1406.59 1128.09C1404.22 1070.96 1428.26 896.027 1427.07 871.205C1425.89 846.777 1375.85 828.259 1377.04 860.173ZM1617.71 1022.11C1617.71 1007.53 1596.83 995.709 1576.34 995.709C1559 995.709 1570.03 1007.92 1570.03 1017.38C1570.03 1018.17 1570.03 1019.35 1570.03 1020.53C1570.03 1043.78 1538.12 1141.88 1529.85 1167.49C1526.69 1158.04 1523.94 1143.46 1523.94 1115.88C1523.94 1059.54 1539.3 1012.65 1539.3 998.467C1539.3 983.889 1513.69 972.069 1493.2 972.069C1475.87 972.069 1486.9 984.283 1486.9 993.739C1486.9 1007.14 1476.66 1075.69 1476.66 1118.64C1476.66 1175.77 1516.06 1191.92 1530.63 1190.35C1531.42 1190.35 1532.21 1189.95 1532.6 1189.95C1534.18 1189.56 1535.36 1188.77 1535.76 1187.59C1549.55 1174.59 1564.12 1111.94 1570.82 1080.42C1571.22 1103.67 1571.61 1128.88 1571.61 1148.19C1571.61 1232.11 1517.24 1274.27 1495.57 1271.9C1473.9 1269.54 1458.14 1250.63 1456.96 1262.45C1455.77 1274.27 1473.11 1293.18 1503.45 1296.73C1564.12 1303.42 1620.47 1218.32 1620.47 1123.37C1620.47 1067.02 1617.71 1036.29 1617.71 1022.11Z" fill="#243A79"/>
<path d="M929.664 994.133C924.542 990.587 894.204 983.101 881.596 996.103C865.836 1011.47 845.348 1097.76 838.65 1138.34C834.71 1124.15 831.952 1106.03 831.952 1083.18C831.952 995.709 847.712 926.365 847.712 912.575C847.712 898.391 813.04 886.571 805.554 886.571C797.674 886.571 797.28 892.875 797.28 895.633C797.28 898.785 783.49 992.163 783.49 1042.99C783.49 1117.46 796.492 1191.92 856.38 1191.92C867.806 1191.92 855.986 1184.04 844.954 1157.25C851.258 1127.7 878.05 1010.29 904.842 1010.29C918.632 1010.29 925.33 1187.98 876.474 1187.98C854.41 1187.98 871.746 1202.56 894.598 1202.56C981.672 1202.56 979.702 1027.62 929.664 994.133ZM1324.5 1062.69C1320.56 1068.99 1282.73 1165.13 1243.73 1165.13C1226 1165.13 1217.33 1126.52 1216.54 1093.03C1241.36 1089.48 1291.4 1075.69 1291.4 1018.56C1291.4 996.497 1282.34 978.373 1270.52 972.463C1258.31 966.947 1225.21 968.917 1205.12 987.829C1189.75 1002.41 1163.75 1038.66 1162.56 1088.3C1156.26 1100.51 1130.65 1155.28 1094.4 1155.28C1073.13 1155.28 1064.85 1115.88 1068 1076.48C1076.28 1078.84 1087.31 1081.6 1096.37 1081.6C1121.98 1081.6 1142.08 1059.93 1142.08 1018.56C1142.08 996.497 1133.01 978.373 1121.19 972.463C1108.98 966.947 1071.55 964.583 1055.4 978.767C1039.24 992.951 1013.24 1040.23 1013.24 1091.85C1013.24 1130.85 1029.79 1180.5 1084.95 1180.5C1121.19 1180.5 1149.17 1136.76 1163.35 1108.79C1168.08 1143.85 1186.99 1190.35 1234.27 1190.35C1294.16 1190.35 1331.2 1070.18 1335.14 1062.69C1339.08 1055.6 1328.44 1056.39 1324.5 1062.69ZM1106.22 1002.41C1126.32 1002.41 1118.44 1089.88 1068.79 1068.21C1073.13 1033.93 1086.13 1002.41 1106.22 1002.41ZM1256.34 991.375C1268.94 991.375 1270.13 1074.51 1216.54 1084.36C1217.33 1039.84 1231.12 991.375 1256.34 991.375Z" fill="#F7931E"/>
<g filter="url(#filter0_d)">
<path d="M1015.72 746.003C980.779 729.847 965.417 688.03 981.59 653.082L1164.81 257.073C1180.96 222.131 1222.78 206.769 1257.73 222.941C1292.67 239.097 1308.03 280.914 1291.86 315.862L1108.64 711.854C1092.46 746.802 1050.66 762.159 1015.72 746.003Z" fill="#0F367C"/>
<path d="M1111.81 713.324L1108.64 711.854L1111.81 713.324L1295.04 317.332C1312.02 280.631 1295.9 236.733 1259.2 219.765C1222.5 202.781 1178.6 218.906 1161.63 255.603C1161.63 255.603 1161.63 255.604 1161.63 255.604L978.413 651.612C961.429 688.314 977.555 732.212 1014.25 749.18C1050.95 766.147 1094.83 750.026 1111.81 713.324Z" stroke="white" stroke-width="7"/>
</g>
<g filter="url(#filter1_d)">
<path d="M1194.83 741.212C1159.88 725.056 1144.52 683.239 1160.69 648.291L1276.74 397.495C1292.89 362.552 1334.71 347.19 1369.66 363.363C1404.6 379.519 1419.96 421.336 1403.79 456.284L1287.73 707.086C1271.57 742.028 1229.76 757.39 1194.83 741.212Z" fill="#F7931E"/>
<path d="M1157.52 646.821C1157.52 646.821 1157.52 646.821 1157.52 646.821C1140.53 683.522 1156.66 727.42 1193.36 744.388C1230.04 761.379 1273.94 745.252 1290.91 708.556C1290.91 708.556 1290.91 708.555 1290.91 708.555L1406.97 457.754C1423.95 421.052 1407.83 377.155 1371.13 360.187C1334.43 343.202 1290.53 359.328 1273.56 396.026L1157.52 646.821Z" stroke="white" stroke-width="7"/>
</g>
<g filter="url(#filter2_d)">
<path d="M905.475 606.208C870.533 590.052 855.171 548.235 871.343 513.287L987.386 262.491C1003.54 227.549 1045.36 212.187 1080.31 228.359C1115.25 244.515 1130.61 286.332 1114.44 321.28L998.396 572.077C982.218 607.008 940.417 622.364 905.475 606.208Z" fill="#F7931E"/>
<path d="M1001.57 573.548L1001.57 573.546L1117.62 322.75C1134.6 286.049 1118.47 242.151 1081.78 225.183C1045.08 208.199 1001.18 224.324 984.209 261.022L868.167 511.817C868.167 511.817 868.167 511.817 868.167 511.817C851.183 548.519 867.308 592.418 904.006 609.385C940.702 626.352 984.582 610.232 1001.57 573.548Z" stroke="white" stroke-width="7"/>
</g>
<path d="M1021.46 331.214C995.437 310.461 995.051 278.385 1009.01 258.165C1024.25 236.078 1052.49 228.715 1076.36 240.655C1099.66 252.301 1111.09 279.785 1103.13 304.567C1095.33 328.826 1070.27 346.191 1040.51 339.937C1038.3 344.247 1036.05 348.648 1033.81 353.043C1029.69 361.166 1025.6 369.3 1021.48 377.423C1018.08 384.134 1014.02 385.506 1007.57 382.208C1000.96 378.832 999.588 374.546 1003.05 367.699C1008.56 356.825 1014.13 345.968 1019.66 335.105C1020.28 333.8 1020.86 332.473 1021.46 331.214ZM1010.88 301.861C1018.49 325.164 1043.66 337.992 1066.66 330.28C1089.68 322.562 1102.15 297.814 1094.7 274.645C1087.18 251.331 1062.18 238.405 1039.05 245.916C1015.96 253.376 1003.29 278.569 1010.88 301.861Z" fill="white"/>
<path d="M1197.24 353.209C1191.43 338.88 1184.59 322.984 1178.54 306.801C1169.24 281.955 1178.36 256.189 1200.69 242.655C1226.86 226.805 1261.9 237.852 1274.7 265.994C1287.44 294.024 1273.71 326.594 1244.54 337.042C1228.42 342.807 1212.16 348.117 1197.24 353.209ZM1264.29 304.871C1273.63 284.278 1264.51 259.953 1243.93 250.664C1223.66 241.496 1199.2 250.553 1189.95 270.627C1180.59 290.905 1189.9 315.6 1210.37 324.867C1230.8 334.113 1255.12 325.085 1264.29 304.871Z" fill="white"/>
<path d="M1367.19 381.114C1368.92 382.286 1370.69 383.43 1372.39 384.67C1382.22 391.85 1389 401.277 1392.81 412.816C1396.56 424.203 1396.74 435.705 1393.18 447.17C1389.01 460.615 1380.99 471.223 1368.99 478.624C1354.89 487.309 1339.71 489.635 1323.72 485.223C1308.65 481.08 1297.14 472.069 1289.46 458.436C1282.04 445.28 1280.05 431.2 1283.84 416.532C1288.22 399.615 1298.38 387.183 1314.07 379.459C1325.81 373.668 1338.2 372.243 1351 375.022C1354.04 375.688 1357 376.839 1359.99 377.771C1360.26 377.864 1360.54 377.918 1360.83 377.972C1362.95 379.011 1365.08 380.068 1367.19 381.114ZM1315.62 477.675C1341.6 490.452 1373.27 479.697 1386.05 453.732C1398.85 427.762 1388.08 396.104 1362.11 383.305C1336.14 370.505 1304.45 381.289 1291.67 407.231C1278.89 433.252 1289.66 464.892 1315.62 477.675Z" fill="white"/>
<path d="M1320.74 437.678C1322.96 437.67 1325.08 437.9 1327.15 437.624C1330.82 437.138 1333.9 435.2 1336.5 432.652C1340.99 428.295 1344.14 423.172 1344.88 416.81C1345.4 412.289 1344.66 407.952 1342.46 403.949C1339.26 398.109 1333.65 395.799 1327 397.626C1318.71 399.923 1313.57 405.461 1310.97 413.515C1309.91 416.815 1309.37 420.178 1309.68 423.662C1310.04 427.619 1311.46 431.022 1314.4 433.759C1314.7 434.032 1314.97 434.334 1315.24 434.635C1315.3 434.691 1315.3 434.764 1315.37 434.893C1310.72 443.217 1306.04 451.57 1301.35 459.946C1292.12 449.307 1285.75 427.873 1296.82 407.48C1308.1 386.691 1333.61 377.237 1355.63 385.597C1378.1 394.145 1390.95 417.888 1385.64 441.012C1380.26 464.479 1359.87 477.463 1342.16 478.134C1343.26 475.52 1344.35 472.946 1345.45 470.389C1347.44 465.777 1349.45 461.175 1351.42 456.535C1351.73 455.79 1352.05 455.568 1352.87 455.719C1356.34 456.37 1359.69 455.825 1362.7 454.022C1363.79 453.366 1364.73 452.144 1365.3 450.952C1367.34 446.756 1369.36 442.548 1371.05 438.225C1373.52 431.967 1375.72 425.609 1378.03 419.29C1378.08 419.16 1378.1 419.019 1378.18 418.788C1377.52 418.467 1376.89 418.157 1376.16 417.803C1371.44 427.377 1366.73 436.923 1361.98 446.542C1361.07 446.082 1360.24 445.673 1359.33 445.231C1364.05 435.662 1368.77 426.128 1373.52 416.492C1372.52 415.989 1371.57 415.541 1370.53 415.015C1365.81 424.566 1361.1 434.135 1356.35 443.754C1355.42 443.3 1354.62 442.896 1353.7 442.443C1358.43 432.869 1363.14 423.301 1367.89 413.682C1366.87 413.184 1365.96 412.725 1364.98 412.255C1360.23 421.851 1355.53 431.397 1350.78 441.016C1349.9 440.584 1349.09 440.186 1348.16 439.716C1352.87 430.164 1357.59 420.613 1362.34 410.977C1361.37 410.502 1360.53 410.092 1359.58 409.611C1357.52 412.818 1355.38 415.974 1353.44 419.236C1349.82 425.307 1346.27 431.412 1342.8 437.544C1341.73 439.454 1340.64 441.443 1341.1 443.825C1341.75 447.082 1343.26 449.853 1345.63 452.162C1345.83 452.341 1346.02 452.519 1346.19 452.703C1346.24 452.742 1346.27 452.826 1346.36 452.983C1345.35 454.837 1344.29 456.741 1343.23 458.646C1339.77 464.851 1336.29 471.045 1332.85 477.244C1332.54 477.781 1332.25 477.958 1331.63 477.85C1323.11 476.521 1315.47 473.215 1308.77 467.781C1308.2 467.319 1308.01 466.972 1308.33 466.221C1312.3 457.059 1316.25 447.885 1320.19 438.712C1320.41 438.299 1320.63 437.904 1320.74 437.678Z" fill="white"/>
<path d="M1313.72 414.19C1315.68 410.72 1317.76 408.087 1320.79 406.318C1321.12 406.13 1321.63 406.215 1322.05 406.167C1321.91 406.573 1321.88 407.091 1321.62 407.386C1316.07 413.782 1314.33 421.126 1316.1 429.358C1316.17 429.672 1316.03 430.022 1315.97 430.36C1315.64 430.194 1315.16 430.114 1315.01 429.862C1314.26 428.428 1313.36 427.024 1312.94 425.497C1311.82 421.462 1312.33 417.526 1313.72 414.19Z" fill="white"/>
<g filter="url(#filter3_d)">
<path d="M854.031 230.836C728.781 246.674 736.308 377.92 755.727 441.563C850.051 429.179 898.478 382.648 913.027 352.696C957.957 260.195 893.255 227.958 854.031 230.836Z" fill="#243A79"/>
</g>
<path d="M864.961 285.249C818.487 290.039 820.15 338.661 826.791 362.373C869.355 356.21 881.199 342.291 885.747 330.839C900 294.952 879.498 284.52 864.961 285.249Z" fill="white"/>
<path d="M626.524 262.267C719.978 195.671 782.149 236.579 809.983 267.843L792.82 279.731C729.795 230.968 666.651 244.096 626.524 262.267Z" fill="#0F367C"/>
<path d="M648.127 350.246C669.904 263.642 745.712 268.094 788.828 278.695L782.523 295.726C706.644 277.283 667.665 317.288 648.127 350.246Z" fill="#0F367C"/>
<g filter="url(#filter4_d)">
<path d="M1418.11 511.057L1341.57 679.634C1372.93 705.708 1388.85 760.738 1392.88 784.994C1474.3 689.95 1443.62 562.767 1418.11 511.057Z" fill="#243A79"/>
</g>
<defs>
<filter id="filter0_d" x="841.238" y="188.77" width="590.97" height="599.389" filterUnits="userSpaceOnUse" color-interpolation-filters="sRGB">
<feFlood flood-opacity="0" result="BackgroundImageFix"/>
<feColorMatrix in="SourceAlpha" type="matrix" values="0 0 0 0 0 0 0 0 0 0 0 0 0 0 0 0 0 0 127 0"/>
<feOffset dy="4"/>
<feGaussianBlur stdDeviation="2"/>
<feColorMatrix type="matrix" values="0 0 0 0 0 0 0 0 0 0 0 0 0 0 0 0 0 0 0.25 0"/>
<feBlend mode="normal" in2="BackgroundImageFix" result="effect1_dropShadow"/>
<feBlend mode="normal" in="SourceGraphic" in2="effect1_dropShadow" result="shape"/>
</filter>
<filter id="filter1_d" x="1057.81" y="329.192" width="448.859" height="454.191" filterUnits="userSpaceOnUse" color-interpolation-filters="sRGB">
<feFlood flood-opacity="0" result="BackgroundImageFix"/>
<feColorMatrix in="SourceAlpha" type="matrix" values="0 0 0 0 0 0 0 0 0 0 0 0 0 0 0 0 0 0 127 0"/>
<feOffset dy="4"/>
<feGaussianBlur stdDeviation="2"/>
<feColorMatrix type="matrix" values="0 0 0 0 0 0 0 0 0 0 0 0 0 0 0 0 0 0 0.25 0"/>
<feBlend mode="normal" in2="BackgroundImageFix" result="effect1_dropShadow"/>
<feBlend mode="normal" in="SourceGraphic" in2="effect1_dropShadow" result="shape"/>
</filter>
<filter id="filter2_d" x="768.461" y="194.188" width="448.855" height="454.178" filterUnits="userSpaceOnUse" color-interpolation-filters="sRGB">
<feFlood flood-opacity="0" result="BackgroundImageFix"/>
<feColorMatrix in="SourceAlpha" type="matrix" values="0 0 0 0 0 0 0 0 0 0 0 0 0 0 0 0 0 0 127 0"/>
<feOffset dy="4"/>
<feGaussianBlur stdDeviation="2"/>
<feColorMatrix type="matrix" values="0 0 0 0 0 0 0 0 0 0 0 0 0 0 0 0 0 0 0.25 0"/>
<feBlend mode="normal" in2="BackgroundImageFix" result="effect1_dropShadow"/>
<feBlend mode="normal" in="SourceGraphic" in2="effect1_dropShadow" result="shape"/>
</filter>
<filter id="filter3_d" x="710.857" y="210.267" width="249.956" height="251.734" filterUnits="userSpaceOnUse" color-interpolation-filters="sRGB">
<feFlood flood-opacity="0" result="BackgroundImageFix"/>
<feColorMatrix in="SourceAlpha" type="matrix" values="0 0 0 0 0 0 0 0 0 0 0 0 0 0 0 0 0 0 127 0"/>
<feOffset dy="4"/>
<feGaussianBlur stdDeviation="8"/>
<feColorMatrix type="matrix" values="0 0 0 0 0 0 0 0 0 0 0 0 0 0 0 0 0 0 0.65 0"/>
<feBlend mode="normal" in2="BackgroundImageFix" result="effect1_dropShadow"/>
<feBlend mode="normal" in="SourceGraphic" in2="effect1_dropShadow" result="shape"/>
</filter>
<filter id="filter4_d" x="1285.71" y="498.15" width="224.284" height="312.302" filterUnits="userSpaceOnUse" color-interpolation-filters="sRGB">
<feFlood flood-opacity="0" result="BackgroundImageFix"/>
<feColorMatrix in="SourceAlpha" type="matrix" values="0 0 0 0 0 0 0 0 0 0 0 0 0 0 0 0 0 0 127 0"/>
<feOffset dy="4"/>
<feGaussianBlur stdDeviation="8"/>
<feColorMatrix type="matrix" values="0 0 0 0 0 0 0 0 0 0 0 0 0 0 0 0 0 0 0.65 0"/>
<feBlend mode="normal" in2="BackgroundImageFix" result="effect1_dropShadow"/>
<feBlend mode="normal" in="SourceGraphic" in2="effect1_dropShadow" result="shape"/>
</filter>
</defs>
</svg>
