<svg width="933" height="939" viewBox="0 0 933 939" fill="none" xmlns="http://www.w3.org/2000/svg">
<rect x="24.2607" y="224.709" width="708.18" height="720.081" rx="270.5" transform="rotate(-16.6109 24.2607 224.709)" fill="white" stroke="#243A79" stroke-width="39"/>
<g filter="url(#filter0_d)">
<path d="M442.178 664.048C415.34 653.587 401.946 623.063 412.419 596.22L531.058 292.052C541.518 265.213 572.043 251.819 598.886 262.292C625.724 272.752 639.118 303.277 628.646 330.12L510.001 634.276C499.529 661.119 469.016 674.508 442.178 664.048Z" fill="#0F367C"/>
<path d="M409.158 594.948L409.158 594.948C397.983 623.591 412.267 656.146 440.907 667.309C469.546 678.471 502.087 664.191 513.262 635.548L510.001 634.276L513.262 635.548L631.906 331.392C643.081 302.749 628.798 270.194 600.158 259.031C571.515 247.856 538.96 262.14 527.797 290.78C527.797 290.78 527.797 290.78 527.797 290.781L409.158 594.948Z" stroke="white" stroke-width="7"/>
</g>
<g filter="url(#filter1_d)">
<path d="M575.718 652.241C548.88 641.781 535.486 611.256 545.958 584.413L621.1 391.78C631.56 364.942 662.084 351.548 688.928 362.021C715.766 372.481 729.16 403.005 718.687 429.848L643.533 622.486C633.073 649.325 602.549 662.719 575.718 652.241Z" fill="#F7931E"/>
<path d="M542.698 583.141C542.698 583.141 542.698 583.141 542.698 583.141C531.523 611.785 545.807 644.339 574.447 655.502C603.078 666.682 635.632 652.397 646.794 623.759C646.794 623.758 646.794 623.758 646.794 623.757L721.948 431.12C733.123 402.477 718.839 369.922 690.199 358.759C661.555 347.585 629.001 361.869 617.839 390.509L542.698 583.141Z" stroke="white" stroke-width="7"/>
</g>
<g filter="url(#filter2_d)">
<path d="M353.42 564.71C326.582 554.25 313.188 523.726 323.66 496.882L398.802 304.249C409.262 277.411 439.787 264.017 466.63 274.49C493.468 284.95 506.862 315.475 496.389 342.318L421.248 534.951C410.77 561.782 380.258 575.171 353.42 564.71Z" fill="#F7931E"/>
<path d="M424.508 536.224L424.509 536.223L499.65 343.59C510.825 314.946 496.541 282.391 467.901 271.229C439.257 260.055 406.703 274.339 395.541 302.978L320.4 495.61C320.4 495.61 320.4 495.61 320.4 495.611C309.225 524.254 323.509 556.809 352.149 567.971C380.787 579.133 413.328 564.854 424.508 536.224Z" stroke="white" stroke-width="7"/>
</g>
<path d="M427.409 354.008C407.019 339.705 405.257 315.768 414.754 300.025C425.121 282.83 445.871 276.034 464.247 283.854C482.184 291.481 491.982 311.482 487.175 330.356C482.463 348.831 464.549 362.951 442.033 359.648C440.582 362.968 439.102 366.358 437.634 369.743C434.933 375.999 432.248 382.262 429.547 388.517C427.317 393.685 424.348 394.897 419.378 392.73C414.287 390.512 413.063 387.374 415.336 382.102C418.949 373.728 422.608 365.364 426.238 356.997C426.645 355.994 427.016 354.976 427.409 354.008ZM418.156 332.573C424.909 349.626 444.297 358.051 461.122 351.234C477.96 344.412 486.134 325.357 479.506 308.396C472.82 291.33 453.556 282.825 436.628 289.497C419.726 296.129 411.421 315.527 418.156 332.573Z" fill="white"/>
<path d="M559.696 362.358C554.697 351.924 548.86 340.367 543.596 328.559C535.507 310.431 541.14 290.769 557.191 279.635C576.012 266.595 602.684 273.236 613.537 293.665C624.343 314.013 615.582 338.969 594.274 348.111C582.506 353.157 570.6 357.871 559.696 362.358ZM607.551 323.178C613.58 307.37 605.648 289.622 589.855 283.63C574.296 277.714 556.444 285.602 550.455 301.02C544.401 316.593 552.486 334.608 568.202 340.589C583.884 346.555 601.632 338.695 607.551 323.178Z" fill="white"/>
<path d="M687.896 375.391C689.247 376.187 690.617 376.96 691.947 377.808C699.618 382.718 705.118 389.447 708.488 397.89C711.813 406.222 712.476 414.803 710.348 423.529C707.848 433.762 702.344 442.053 693.723 448.132C683.594 455.265 672.361 457.7 660.217 455.14C648.772 452.738 639.761 446.537 633.4 436.709C627.252 427.224 625.123 416.8 627.281 405.671C629.772 392.836 636.79 383.085 648.149 376.595C656.652 371.731 665.841 370.098 675.526 371.585C677.834 371.943 680.091 372.667 682.366 373.225C682.576 373.282 682.789 373.309 683.002 373.336C684.636 374.015 686.275 374.707 687.896 375.391ZM653.824 449.874C673.815 458.223 696.968 448.736 705.321 428.758C713.687 408.774 704.188 385.626 684.205 377.26C664.221 368.895 641.049 378.404 632.702 398.365C624.352 418.385 633.846 441.521 653.824 449.874Z" fill="white"/>
<path d="M655.808 419.768C657.463 419.661 659.063 419.735 660.595 419.434C663.312 418.902 665.522 417.313 667.351 415.291C670.501 411.83 672.62 407.86 672.876 403.075C673.056 399.674 672.309 396.469 670.482 393.581C667.821 389.366 663.529 387.898 658.646 389.569C652.557 391.665 648.977 396.037 647.406 402.172C646.759 404.685 646.51 407.221 646.902 409.81C647.352 412.748 648.576 415.224 650.891 417.133C651.127 417.324 651.345 417.536 651.562 417.749C651.607 417.788 651.615 417.842 651.668 417.935C648.578 424.366 645.468 430.819 642.351 437.289C634.97 429.768 629.23 414.053 636.555 398.315C644.028 382.271 662.644 374.038 679.477 379.27C696.647 384.622 707.337 401.763 704.431 419.276C701.488 437.05 686.858 447.683 673.664 448.998C674.364 446.995 675.061 445.023 675.764 443.063C677.04 439.526 678.333 435.998 679.586 432.442C679.783 431.871 680.011 431.691 680.632 431.766C683.258 432.093 685.733 431.531 687.899 430.047C688.684 429.507 689.326 428.551 689.696 427.635C691.028 424.407 692.341 421.172 693.41 417.865C694.961 413.078 696.314 408.229 697.748 403.403C697.779 403.304 697.793 403.198 697.836 403.022C697.332 402.812 696.845 402.61 696.289 402.379C693.197 409.746 690.124 417.091 687.017 424.493C686.317 424.192 685.674 423.925 684.979 423.636C688.058 416.273 691.149 408.936 694.25 401.522C693.48 401.191 692.755 400.9 691.951 400.556C688.866 407.906 685.786 415.268 682.679 422.67C681.967 422.374 681.353 422.109 680.641 421.813C683.733 414.445 686.813 407.083 689.919 399.681C689.137 399.356 688.437 399.055 687.677 398.749C684.578 406.134 681.505 413.479 678.398 420.881C677.721 420.599 677.095 420.339 676.377 420.031C679.462 412.681 682.547 405.331 685.649 397.917C684.902 397.606 684.258 397.339 683.523 397.023C682.132 399.512 680.684 401.968 679.379 404.493C676.957 409.194 674.587 413.916 672.281 418.655C671.566 420.131 670.847 421.666 671.299 423.423C671.931 425.826 673.188 427.827 675.065 429.442C675.217 429.566 675.369 429.691 675.509 429.82C675.549 429.847 675.574 429.908 675.65 430.021C674.973 431.452 674.27 432.923 673.567 434.394C671.27 439.187 668.955 443.973 666.669 448.761C666.466 449.176 666.253 449.322 665.785 449.27C659.36 448.669 653.504 446.551 648.255 442.8C647.806 442.481 647.645 442.231 647.854 441.655C650.396 434.63 652.921 427.598 655.446 420.565C655.589 420.248 655.736 419.942 655.808 419.768Z" fill="white"/>
<path d="M649.491 402.549C650.789 399.868 652.226 397.806 654.403 396.346C654.641 396.19 655.032 396.23 655.34 396.175C655.252 396.485 655.254 396.873 655.076 397.105C651.221 402.137 650.264 407.701 651.963 413.768C652.029 413.999 651.938 414.267 651.914 414.522C651.653 414.414 651.292 414.376 651.174 414.194C650.545 413.158 649.812 412.15 649.421 411.03C648.4 408.068 648.602 405.105 649.491 402.549Z" fill="white"/>
<g filter="url(#filter3_d)">
<path d="M297.755 286.735C204.943 304.319 216.594 401.99 234.02 448.629C303.895 435.046 337.924 398.071 347.413 375.034C376.719 303.887 326.916 282.784 297.755 286.735Z" fill="#243A79"/>
</g>
<path d="M308.418 326.871C273.929 332.583 277.405 368.819 283.454 386.223C314.959 379.664 323.165 368.725 326.036 359.963C335.031 332.507 319.24 325.658 308.418 326.871Z" fill="white"/>
<path d="M129.29 320.661C196.024 266.632 244.334 294.327 266.559 316.397L254.287 326.064C204.977 292.542 158.423 305.247 129.29 320.661Z" fill="#0F367C"/>
<path d="M149.465 385.374C161.75 319.696 218.57 319.537 251.257 325.474L247.331 338.483C189.815 328.195 162.542 359.863 149.465 385.374Z" fill="#0F367C"/>
<g filter="url(#filter4_d)">
<path d="M731.897 470.096L682.48 599.511C707.102 617.543 721.516 657.91 725.644 675.839C782.078 601.117 753.327 507.543 731.897 470.096Z" fill="#243A79"/>
</g>
<defs>
<filter id="filter0_d" x="289.738" y="233.623" width="461.584" height="467.082" filterUnits="userSpaceOnUse" color-interpolation-filters="sRGB">
<feFlood flood-opacity="0" result="BackgroundImageFix"/>
<feColorMatrix in="SourceAlpha" type="matrix" values="0 0 0 0 0 0 0 0 0 0 0 0 0 0 0 0 0 0 127 0"/>
<feOffset dy="4"/>
<feGaussianBlur stdDeviation="2"/>
<feColorMatrix type="matrix" values="0 0 0 0 0 0 0 0 0 0 0 0 0 0 0 0 0 0 0.25 0"/>
<feBlend mode="normal" in2="BackgroundImageFix" result="effect1_dropShadow"/>
<feBlend mode="normal" in="SourceGraphic" in2="effect1_dropShadow" result="shape"/>
</filter>
<filter id="filter1_d" x="456.285" y="333.352" width="352.076" height="355.557" filterUnits="userSpaceOnUse" color-interpolation-filters="sRGB">
<feFlood flood-opacity="0" result="BackgroundImageFix"/>
<feColorMatrix in="SourceAlpha" type="matrix" values="0 0 0 0 0 0 0 0 0 0 0 0 0 0 0 0 0 0 127 0"/>
<feOffset dy="4"/>
<feGaussianBlur stdDeviation="2"/>
<feColorMatrix type="matrix" values="0 0 0 0 0 0 0 0 0 0 0 0 0 0 0 0 0 0 0.25 0"/>
<feBlend mode="normal" in2="BackgroundImageFix" result="effect1_dropShadow"/>
<feBlend mode="normal" in="SourceGraphic" in2="effect1_dropShadow" result="shape"/>
</filter>
<filter id="filter2_d" x="233.987" y="245.821" width="352.072" height="355.548" filterUnits="userSpaceOnUse" color-interpolation-filters="sRGB">
<feFlood flood-opacity="0" result="BackgroundImageFix"/>
<feColorMatrix in="SourceAlpha" type="matrix" values="0 0 0 0 0 0 0 0 0 0 0 0 0 0 0 0 0 0 127 0"/>
<feOffset dy="4"/>
<feGaussianBlur stdDeviation="2"/>
<feColorMatrix type="matrix" values="0 0 0 0 0 0 0 0 0 0 0 0 0 0 0 0 0 0 0.25 0"/>
<feBlend mode="normal" in2="BackgroundImageFix" result="effect1_dropShadow"/>
<feBlend mode="normal" in="SourceGraphic" in2="effect1_dropShadow" result="shape"/>
</filter>
<filter id="filter3_d" x="187.545" y="265.338" width="202.549" height="203.771" filterUnits="userSpaceOnUse" color-interpolation-filters="sRGB">
<feFlood flood-opacity="0" result="BackgroundImageFix"/>
<feColorMatrix in="SourceAlpha" type="matrix" values="0 0 0 0 0 0 0 0 0 0 0 0 0 0 0 0 0 0 127 0"/>
<feOffset dy="4"/>
<feGaussianBlur stdDeviation="8"/>
<feColorMatrix type="matrix" values="0 0 0 0 0 0 0 0 0 0 0 0 0 0 0 0 0 0 0.65 0"/>
<feBlend mode="normal" in2="BackgroundImageFix" result="effect1_dropShadow"/>
<feBlend mode="normal" in="SourceGraphic" in2="effect1_dropShadow" result="shape"/>
</filter>
<filter id="filter4_d" x="630.559" y="457.279" width="185.215" height="243.478" filterUnits="userSpaceOnUse" color-interpolation-filters="sRGB">
<feFlood flood-opacity="0" result="BackgroundImageFix"/>
<feColorMatrix in="SourceAlpha" type="matrix" values="0 0 0 0 0 0 0 0 0 0 0 0 0 0 0 0 0 0 127 0"/>
<feOffset dy="4"/>
<feGaussianBlur stdDeviation="8"/>
<feColorMatrix type="matrix" values="0 0 0 0 0 0 0 0 0 0 0 0 0 0 0 0 0 0 0.65 0"/>
<feBlend mode="normal" in2="BackgroundImageFix" result="effect1_dropShadow"/>
<feBlend mode="normal" in="SourceGraphic" in2="effect1_dropShadow" result="shape"/>
</filter>
</defs>
</svg>
