<svg width="933" height="941" viewBox="0 0 933 941" fill="none" xmlns="http://www.w3.org/2000/svg">
<rect x="24.2607" y="226.709" width="708.18" height="720.081" rx="270.5" transform="rotate(-16.6109 24.2607 226.709)" fill="#FFE8DA" stroke="#243A79" stroke-width="39"/>
<g filter="url(#filter0_d)">
<path d="M430.164 664.189C404.019 652.1 392.524 620.811 404.625 594.661L541.717 298.352C553.806 272.207 585.095 260.712 611.244 272.813C637.39 284.902 648.884 316.191 636.783 342.341L499.687 638.637C487.586 664.787 456.309 676.277 430.164 664.189Z" fill="#0F367C"/>
<path d="M401.449 593.192L401.449 593.192C388.536 621.095 400.794 654.465 428.695 667.365C456.594 680.265 489.95 668.011 502.863 640.107L499.687 638.637L502.863 640.107L639.959 343.81C652.872 315.907 640.614 282.537 612.714 269.637C584.811 256.724 551.441 268.982 538.541 296.882C538.541 296.883 538.541 296.883 538.54 296.883L401.449 593.192Z" stroke="white" stroke-width="7"/>
</g>
<g filter="url(#filter1_d)">
<path d="M564.177 660.604C538.031 648.515 526.537 617.226 538.638 591.077L625.466 403.421C637.554 377.276 668.844 365.781 694.993 377.882C721.138 389.971 732.633 421.26 720.532 447.41L633.691 635.07C621.603 661.215 590.313 672.709 564.177 660.604Z" fill="#F7931E"/>
<path d="M535.462 589.607C535.462 589.607 535.462 589.607 535.462 589.607C522.549 617.51 534.807 650.881 562.708 663.781C590.599 676.697 623.968 664.438 636.868 636.539C636.868 636.539 636.868 636.539 636.868 636.538L723.708 448.88C736.621 420.976 724.363 387.606 696.462 374.706C668.559 361.794 635.189 374.052 622.289 401.952L535.462 589.607Z" stroke="white" stroke-width="7"/>
</g>
<g filter="url(#filter2_d)">
<path d="M347.673 559.589C321.528 547.5 310.033 516.211 322.134 490.062L408.962 302.406C421.05 276.261 452.34 264.766 478.489 276.867C504.634 288.956 516.129 320.245 504.028 346.395L417.2 534.05C405.095 560.187 373.818 571.677 347.673 559.589Z" fill="#F7931E"/>
<path d="M420.376 535.521L420.376 535.52L507.204 347.864C520.117 319.961 507.859 286.591 479.958 273.69C452.055 260.779 418.685 273.037 405.785 300.937L318.958 488.592C318.958 488.592 318.958 488.592 318.958 488.592C306.045 516.495 318.303 549.865 346.204 562.766C374.103 575.665 407.459 563.411 420.376 535.521Z" stroke="white" stroke-width="7"/>
</g>
<path d="M434.459 353.827C414.986 338.299 414.697 314.299 425.144 299.169C436.546 282.643 457.675 277.134 475.536 286.067C492.97 294.781 501.522 315.346 495.565 333.889C489.728 352.04 470.98 365.033 448.71 360.354C447.058 363.579 445.372 366.872 443.699 370.16C440.619 376.238 437.555 382.325 434.474 388.403C431.932 393.424 428.894 394.451 424.066 391.983C419.121 389.457 418.093 386.25 420.685 381.127C424.804 372.991 428.971 364.866 433.107 356.738C433.575 355.762 434.009 354.769 434.459 353.827ZM426.54 331.864C432.233 349.3 451.068 358.899 468.28 353.128C485.505 347.353 494.833 328.836 489.259 311.5C483.633 294.055 464.928 284.384 447.622 290.004C430.345 295.586 420.865 314.436 426.54 331.864Z" fill="white"/>
<path d="M565.984 370.285C561.635 359.563 556.519 347.67 551.99 335.561C545.029 316.969 551.859 297.691 568.564 287.564C588.15 275.704 614.364 283.97 623.942 305.027C633.478 326 623.201 350.371 601.372 358.188C589.316 362.501 577.143 366.475 565.984 370.285ZM616.154 334.116C623.143 318.708 616.316 300.507 600.921 293.556C585.754 286.696 567.451 293.474 560.527 308.494C553.528 323.666 560.492 342.144 575.811 349.078C591.097 355.997 609.294 349.241 616.154 334.116Z" fill="white"/>
<path d="M693.143 391.164C694.442 392.041 695.762 392.897 697.037 393.825C704.392 399.197 709.468 406.251 712.314 414.885C715.121 423.405 715.256 432.011 712.596 440.59C709.473 450.65 703.47 458.588 694.492 464.126C683.944 470.624 672.582 472.364 660.619 469.063C649.343 465.963 640.73 459.221 634.984 449.02C629.43 439.176 627.945 428.641 630.783 417.666C634.057 405.008 641.66 395.706 653.397 389.926C662.182 385.593 671.454 384.527 681.029 386.606C683.31 387.105 685.519 387.966 687.755 388.663C687.962 388.733 688.173 388.773 688.384 388.813C689.973 389.591 691.566 390.382 693.143 391.164ZM654.561 463.415C674.002 472.975 697.693 464.928 707.258 445.5C716.835 426.068 708.775 402.381 689.343 392.804C669.911 383.227 646.198 391.295 636.642 410.706C627.078 430.176 635.133 453.85 654.561 463.415Z" fill="white"/>
<path d="M658.39 433.488C660.049 433.482 661.641 433.654 663.188 433.447C665.933 433.084 668.236 431.633 670.186 429.727C673.542 426.467 675.901 422.634 676.451 417.874C676.839 414.491 676.29 411.246 674.645 408.25C672.247 403.881 668.053 402.152 663.077 403.519C656.871 405.238 653.029 409.382 651.084 415.408C650.284 417.877 649.88 420.393 650.112 423.001C650.381 425.962 651.45 428.507 653.644 430.556C653.868 430.76 654.072 430.986 654.276 431.211C654.319 431.253 654.323 431.308 654.37 431.404C650.891 437.633 647.391 443.883 643.883 450.149C636.977 442.189 632.213 426.151 640.491 410.892C648.935 395.338 668.021 388.263 684.501 394.519C701.309 400.915 710.928 418.68 706.952 435.982C702.923 453.541 687.667 463.256 674.418 463.758C675.239 461.803 676.056 459.877 676.878 457.963C678.368 454.512 679.876 451.069 681.345 447.598C681.576 447.04 681.815 446.874 682.43 446.987C685.031 447.474 687.536 447.066 689.789 445.717C690.606 445.226 691.305 444.312 691.731 443.42C693.258 440.28 694.768 437.132 696.037 433.897C697.88 429.214 699.528 424.457 701.256 419.729C701.293 419.632 701.313 419.526 701.367 419.353C700.876 419.113 700.403 418.882 699.862 418.617C696.323 425.78 692.805 432.922 689.25 440.12C688.57 439.776 687.944 439.47 687.268 439.139C690.794 431.98 694.329 424.846 697.88 417.636C697.132 417.259 696.426 416.924 695.644 416.531C692.114 423.677 688.588 430.836 685.032 438.034C684.339 437.694 683.743 437.392 683.05 437.053C686.589 429.889 690.115 422.73 693.67 415.533C692.91 415.16 692.229 414.817 691.49 414.465C687.943 421.646 684.425 428.788 680.869 435.985C680.21 435.662 679.602 435.364 678.904 435.012C682.435 427.866 685.965 420.719 689.516 413.509C688.789 413.153 688.164 412.847 687.45 412.487C685.908 414.886 684.312 417.248 682.855 419.689C680.148 424.232 677.493 428.799 674.901 433.388C674.096 434.817 673.284 436.305 673.627 438.087C674.11 440.524 675.243 442.598 677.016 444.326C677.161 444.459 677.305 444.592 677.436 444.73C677.475 444.759 677.496 444.822 677.564 444.94C676.802 446.327 676.01 447.752 675.218 449.176C672.63 453.819 670.026 458.454 667.451 463.093C667.223 463.494 667.001 463.627 666.537 463.546C660.161 462.552 654.445 460.078 649.437 456.012C649.009 455.666 648.863 455.407 649.107 454.845C652.076 447.989 655.028 441.125 657.98 434.261C658.142 433.952 658.308 433.657 658.39 433.488Z" fill="white"/>
<path d="M653.142 415.913C654.602 413.317 656.164 411.347 658.425 410.023C658.673 409.882 659.06 409.946 659.371 409.91C659.265 410.214 659.243 410.601 659.051 410.822C654.895 415.608 653.598 421.103 654.92 427.262C654.973 427.498 654.866 427.759 654.826 428.012C654.572 427.888 654.214 427.828 654.107 427.639C653.542 426.567 652.873 425.516 652.552 424.374C651.714 421.355 652.098 418.409 653.142 415.913Z" fill="white"/>
<g filter="url(#filter3_d)">
<path d="M309.181 278.72C215.464 290.571 221.096 388.774 235.626 436.395C306.203 427.128 342.438 392.312 353.324 369.901C386.943 300.688 338.53 276.567 309.181 278.72Z" fill="#243A79"/>
</g>
<path d="M317.359 319.435C282.585 323.019 283.829 359.399 288.798 377.142C320.646 372.53 329.508 362.116 332.911 353.547C343.576 326.694 328.235 318.889 317.359 319.435Z" fill="white"/>
<path d="M138.95 302.238C208.876 252.409 255.395 283.017 276.222 306.41L263.38 315.306C216.222 278.82 168.975 288.642 138.95 302.238Z" fill="#0F367C"/>
<path d="M155.114 368.068C171.409 303.267 228.131 306.598 260.392 314.531L255.675 327.274C198.899 313.474 169.733 343.407 155.114 368.068Z" fill="#0F367C"/>
<g filter="url(#filter4_d)">
<path d="M731.245 488.393L673.975 614.529C697.444 634.038 709.351 675.214 712.371 693.364C773.287 622.247 750.335 527.085 731.245 488.393Z" fill="#243A79"/>
</g>
<defs>
<filter id="filter0_d" x="296.363" y="245.007" width="448.678" height="454.977" filterUnits="userSpaceOnUse" color-interpolation-filters="sRGB">
<feFlood flood-opacity="0" result="BackgroundImageFix"/>
<feColorMatrix in="SourceAlpha" type="matrix" values="0 0 0 0 0 0 0 0 0 0 0 0 0 0 0 0 0 0 127 0"/>
<feOffset dy="4"/>
<feGaussianBlur stdDeviation="2"/>
<feColorMatrix type="matrix" values="0 0 0 0 0 0 0 0 0 0 0 0 0 0 0 0 0 0 0.25 0"/>
<feBlend mode="normal" in2="BackgroundImageFix" result="effect1_dropShadow"/>
<feBlend mode="normal" in="SourceGraphic" in2="effect1_dropShadow" result="shape"/>
</filter>
<filter id="filter1_d" x="458.412" y="350.076" width="342.345" height="346.335" filterUnits="userSpaceOnUse" color-interpolation-filters="sRGB">
<feFlood flood-opacity="0" result="BackgroundImageFix"/>
<feColorMatrix in="SourceAlpha" type="matrix" values="0 0 0 0 0 0 0 0 0 0 0 0 0 0 0 0 0 0 127 0"/>
<feOffset dy="4"/>
<feGaussianBlur stdDeviation="2"/>
<feColorMatrix type="matrix" values="0 0 0 0 0 0 0 0 0 0 0 0 0 0 0 0 0 0 0.25 0"/>
<feBlend mode="normal" in2="BackgroundImageFix" result="effect1_dropShadow"/>
<feBlend mode="normal" in="SourceGraphic" in2="effect1_dropShadow" result="shape"/>
</filter>
<filter id="filter2_d" x="241.908" y="249.061" width="342.342" height="346.325" filterUnits="userSpaceOnUse" color-interpolation-filters="sRGB">
<feFlood flood-opacity="0" result="BackgroundImageFix"/>
<feColorMatrix in="SourceAlpha" type="matrix" values="0 0 0 0 0 0 0 0 0 0 0 0 0 0 0 0 0 0 127 0"/>
<feOffset dy="4"/>
<feGaussianBlur stdDeviation="2"/>
<feColorMatrix type="matrix" values="0 0 0 0 0 0 0 0 0 0 0 0 0 0 0 0 0 0 0.25 0"/>
<feBlend mode="normal" in2="BackgroundImageFix" result="effect1_dropShadow"/>
<feBlend mode="normal" in="SourceGraphic" in2="effect1_dropShadow" result="shape"/>
</filter>
<filter id="filter3_d" x="198.024" y="260.309" width="195.083" height="196.414" filterUnits="userSpaceOnUse" color-interpolation-filters="sRGB">
<feFlood flood-opacity="0" result="BackgroundImageFix"/>
<feColorMatrix in="SourceAlpha" type="matrix" values="0 0 0 0 0 0 0 0 0 0 0 0 0 0 0 0 0 0 127 0"/>
<feOffset dy="4"/>
<feGaussianBlur stdDeviation="8"/>
<feColorMatrix type="matrix" values="0 0 0 0 0 0 0 0 0 0 0 0 0 0 0 0 0 0 0.65 0"/>
<feBlend mode="normal" in2="BackgroundImageFix" result="effect1_dropShadow"/>
<feBlend mode="normal" in="SourceGraphic" in2="effect1_dropShadow" result="shape"/>
</filter>
<filter id="filter4_d" x="628.151" y="475.714" width="175.874" height="241.733" filterUnits="userSpaceOnUse" color-interpolation-filters="sRGB">
<feFlood flood-opacity="0" result="BackgroundImageFix"/>
<feColorMatrix in="SourceAlpha" type="matrix" values="0 0 0 0 0 0 0 0 0 0 0 0 0 0 0 0 0 0 127 0"/>
<feOffset dy="4"/>
<feGaussianBlur stdDeviation="8"/>
<feColorMatrix type="matrix" values="0 0 0 0 0 0 0 0 0 0 0 0 0 0 0 0 0 0 0.65 0"/>
<feBlend mode="normal" in2="BackgroundImageFix" result="effect1_dropShadow"/>
<feBlend mode="normal" in="SourceGraphic" in2="effect1_dropShadow" result="shape"/>
</filter>
</defs>
</svg>
