<svg width="2728" height="2743" viewBox="0 0 2728 2743" fill="none" xmlns="http://www.w3.org/2000/svg">
<g filter="url(#filter0_d)">
<path d="M1139.09 2215.86C1034.38 2155.92 997.776 2021.17 1057.77 1916.44L1737.52 729.693C1797.46 624.976 1932.21 588.374 2036.94 648.372C2141.66 708.317 2178.26 843.067 2118.26 947.797L1438.51 2134.49C1378.51 2239.22 1243.81 2275.81 1139.09 2215.86Z" fill="#0F367C"/>
<path d="M1440.24 2135.48L1438.51 2134.49L1440.24 2135.48L2120 948.791C2180.54 843.103 2143.61 707.13 2037.93 646.637C1932.25 586.09 1796.27 623.024 1735.78 728.699L1056.04 1915.44C995.492 2021.13 1032.43 2157.1 1138.1 2217.6C1243.78 2278.09 1379.69 2241.17 1440.24 2135.48Z" stroke="white" stroke-width="4"/>
</g>
<g filter="url(#filter1_d)">
<path d="M1699.65 2249.58C1594.94 2189.64 1558.33 2054.89 1618.33 1950.16L2048.85 1198.58C2108.79 1093.87 2243.54 1057.27 2348.27 1117.26C2452.99 1177.21 2489.59 1311.96 2429.59 1416.69L1999.02 2168.28C1939.08 2272.99 1804.33 2309.6 1699.65 2249.58Z" fill="#DA1F3D"/>
<path d="M1616.6 1949.16C1556.05 2054.85 1592.98 2190.83 1698.66 2251.32C1804.29 2311.88 1940.27 2274.95 2000.76 2169.27C2000.76 2169.27 2000.76 2169.27 2000.76 2169.27L2431.33 1417.68C2491.87 1311.99 2454.94 1176.02 2349.26 1115.53C2243.58 1054.98 2107.6 1091.91 2047.11 1197.59L1616.6 1949.16Z" stroke="white" stroke-width="4"/>
</g>
<g filter="url(#filter2_d)">
<path d="M832.845 1749.39C728.128 1689.44 691.526 1554.69 751.524 1449.96L1182.04 698.387C1241.98 593.671 1376.73 557.069 1481.46 617.067C1586.18 677.011 1622.78 811.762 1562.78 916.491L1132.27 1668.07C1072.26 1772.74 937.561 1809.33 832.845 1749.39Z" fill="#F7931E"/>
<path d="M1134 1669.06L1134 1669.06L1564.52 917.486C1625.06 811.798 1588.13 675.825 1482.46 615.332C1376.77 554.784 1240.79 591.718 1180.3 697.393C1180.3 697.393 1180.3 697.394 1180.3 697.394L749.789 1448.97C689.242 1554.66 726.176 1690.63 831.851 1751.12C937.526 1811.62 1073.44 1774.69 1134 1669.06Z" stroke="white" stroke-width="4"/>
</g>
<path d="M1269.76 922.238C1194.14 850.363 1201.65 750.1 1250.74 690.757C1304.33 625.932 1394.5 610.617 1465.79 654.387C1535.38 697.085 1563.6 786.01 1532.01 861.231C1501.05 934.857 1418.1 982.27 1326.86 954.652C1318.79 967.51 1310.56 980.639 1302.39 993.755C1287.32 1018 1272.33 1042.29 1257.26 1066.53C1244.83 1086.56 1231.78 1089.75 1212.53 1077.69C1192.81 1065.35 1189.68 1051.6 1202.36 1031.16C1222.51 998.702 1242.85 966.312 1263.06 933.895C1265.37 929.992 1267.54 926.006 1269.76 922.238ZM1244.69 827.706C1262.11 902.537 1337.23 949.437 1411.15 931.606C1485.13 913.763 1530.79 839.878 1513.82 765.508C1496.68 690.664 1422.14 643.508 1347.88 660.676C1273.75 677.694 1227.34 752.916 1244.69 827.706Z" fill="white"/>
<path d="M1812.65 1038.69C1798.4 992.372 1781.37 940.88 1766.87 888.702C1744.58 808.59 1780.08 730.618 1853.47 694.424C1939.51 652.046 2045.91 696.065 2078.23 787.417C2110.4 878.405 2058.66 976.374 1964.73 1001.07C1912.85 1014.69 1860.61 1026.85 1812.65 1038.69ZM2035.16 905.982C2069.92 844.221 2048.04 765.785 1986.32 731.187C1925.52 697.049 1846.68 718.684 1812.33 778.85C1777.61 839.624 1799.96 919.263 1861.37 953.767C1922.64 988.19 2001.04 966.608 2035.16 905.982Z" fill="white"/>
<path d="M2335.72 1172.02C2340.83 1176.15 2346.03 1180.2 2351.01 1184.54C2379.75 1209.63 2398.37 1240.91 2407.11 1277.97C2415.73 1314.55 2413.17 1350.51 2398.95 1385.35C2382.26 1426.19 2354.33 1457.14 2314.85 1476.99C2268.47 1500.27 2220.43 1503.41 2171.7 1485.29C2125.77 1468.25 2092.28 1436.99 2072 1392.33C2052.4 1349.23 2050.03 1304.73 2065.86 1259.96C2084.12 1208.33 2119.23 1172.27 2170.31 1152.41C2208.55 1137.52 2247.62 1136.44 2286.83 1148.6C2296.17 1151.51 2305.07 1155.9 2314.15 1159.62C2314.99 1159.99 2315.85 1160.23 2316.72 1160.48C2323.07 1164.3 2329.43 1168.18 2335.72 1172.02ZM2148.47 1459.52C2226.13 1506.48 2327.92 1481.5 2374.89 1403.9C2421.92 1326.28 2396.89 1224.51 2319.27 1177.48C2241.66 1130.45 2139.77 1155.51 2092.84 1233.04C2045.86 1310.82 2070.87 1412.55 2148.47 1459.52Z" fill="white"/>
<path d="M2175.32 1336.02C2182.24 1336.6 2188.83 1337.89 2195.36 1337.59C2206.95 1337.07 2217.08 1331.86 2225.91 1324.61C2241.1 1312.22 2252.34 1297.08 2256.36 1277.42C2259.21 1263.44 2258.1 1249.7 2252.32 1236.6C2243.9 1217.5 2227.03 1208.76 2205.77 1212.66C2179.24 1217.57 2161.71 1233.47 2151.4 1257.92C2147.17 1267.93 2144.56 1278.28 2144.59 1289.25C2144.63 1301.7 2148.17 1312.71 2156.58 1322.06C2157.44 1322.99 2158.21 1324.01 2158.98 1325.02C2159.14 1325.21 2159.14 1325.44 2159.3 1325.86C2142.52 1350.59 2125.64 1375.4 2108.73 1400.28C2082.8 1364.55 2068.75 1295.89 2108.83 1235.22C2149.72 1173.38 2231.94 1150.79 2298.44 1182.88C2366.26 1215.68 2399.95 1293.31 2377.07 1364.07C2353.88 1435.88 2286.68 1470.88 2231.21 1468.16C2235.35 1460.3 2239.46 1452.56 2243.58 1444.87C2251.06 1431.01 2258.6 1417.19 2265.99 1403.24C2267.16 1401 2268.21 1400.39 2270.74 1401.08C2281.42 1404.06 2292.02 1403.27 2301.91 1398.46C2305.5 1396.71 2308.75 1393.14 2310.85 1389.58C2318.36 1377.03 2325.81 1364.44 2332.28 1351.4C2341.67 1332.53 2350.28 1313.28 2359.21 1294.17C2359.4 1293.78 2359.52 1293.35 2359.8 1292.64C2357.84 1291.46 2355.95 1290.33 2353.79 1289.02C2336.42 1317.63 2319.15 1346.16 2301.7 1374.9C2298.98 1373.22 2296.48 1371.72 2293.78 1370.09C2311.1 1341.5 2328.44 1313.01 2345.88 1284.21C2342.89 1282.37 2340.07 1280.71 2336.95 1278.79C2319.62 1307.33 2302.3 1335.92 2284.85 1364.67C2282.08 1363 2279.71 1361.52 2276.94 1359.85C2294.31 1331.24 2311.62 1302.65 2329.07 1273.9C2326.03 1272.07 2323.32 1270.39 2320.36 1268.66C2302.95 1297.33 2285.68 1325.86 2268.22 1354.61C2265.59 1353.02 2263.16 1351.55 2260.38 1349.83C2277.71 1321.29 2295.03 1292.75 2312.47 1263.95C2309.57 1262.2 2307.07 1260.7 2304.22 1258.93C2296.92 1268.39 2289.39 1277.66 2282.43 1287.32C2269.48 1305.29 2256.74 1323.39 2244.26 1341.6C2240.38 1347.27 2236.45 1353.19 2237.24 1360.75C2238.37 1371.09 2242.34 1380.16 2249.11 1388.01C2249.67 1388.62 2250.22 1389.23 2250.72 1389.85C2250.87 1389.99 2250.94 1390.26 2251.18 1390.77C2247.49 1396.28 2243.67 1401.94 2239.85 1407.6C2227.36 1426.04 2214.81 1444.43 2202.38 1462.85C2201.28 1464.45 2200.31 1464.92 2198.4 1464.42C2172.15 1457.95 2149.2 1445.55 2129.78 1426.76C2128.11 1425.16 2127.6 1424.03 2128.82 1421.77C2143.7 1394.24 2158.52 1366.67 2173.33 1339.1C2174.12 1337.87 2174.92 1336.69 2175.32 1336.02Z" fill="white"/>
<path d="M2159.81 1260.77C2166.84 1250.47 2174.08 1242.81 2183.99 1238.11C2185.08 1237.61 2186.67 1238.02 2187.98 1237.98C2187.43 1239.21 2187.19 1240.82 2186.31 1241.67C2167.23 1260.13 2159.82 1282.59 2163.1 1308.78C2163.24 1309.78 2162.7 1310.83 2162.44 1311.87C2161.42 1311.26 2159.95 1310.88 2159.57 1310.06C2157.61 1305.37 2155.19 1300.75 2154.27 1295.86C2151.87 1282.96 2154.54 1270.81 2159.81 1260.77Z" fill="white"/>
<g filter="url(#filter3_d)">
<path d="M800.979 605.275C405.58 620.688 393.409 1032.55 436.748 1236.55C734.641 1223.52 898.505 1091.39 952.073 1001.82C1117.51 725.196 924.239 606.949 800.979 605.275Z" fill="#243A79"/>
</g>
<path d="M820.317 778.153C673.897 780.477 665.875 932.752 680.166 1008.6C814.75 1000.92 855.514 960.681 872.83 926.156C927.089 817.971 865.906 779.826 820.317 778.153Z" fill="white"/>
<path d="M82.0388 641.582C391.951 459.037 574.962 603.67 653.379 708.857L596.554 741.315C413.01 571.921 212.276 595.75 82.0388 641.582Z" fill="#0F367C"/>
<path d="M91.866 891.937C236.28 652.177 459.502 734.784 579.086 805.962L544.625 851.263C333.972 726.641 180.555 810.974 91.866 891.937Z" fill="#0F367C"/>
<g filter="url(#filter4_d)">
<path d="M2415.87 1617L2131.06 2122.59C2221.91 2212.53 2256.64 2388.69 2262.65 2465.52C2542.7 2190.87 2481.48 1785.41 2415.87 1617Z" fill="#243A79"/>
</g>
<defs>
<filter id="filter0_d" x="735.817" y="568.418" width="1704.39" height="1735.35" filterUnits="userSpaceOnUse" color-interpolation-filters="sRGB">
<feFlood flood-opacity="0" result="BackgroundImageFix"/>
<feColorMatrix in="SourceAlpha" type="matrix" values="0 0 0 0 0 0 0 0 0 0 0 0 0 0 0 0 0 0 127 0"/>
<feOffset dy="4"/>
<feGaussianBlur stdDeviation="2"/>
<feColorMatrix type="matrix" values="0 0 0 0 0 0 0 0 0 0 0 0 0 0 0 0 0 0 0.25 0"/>
<feBlend mode="normal" in2="BackgroundImageFix" result="effect1_dropShadow"/>
<feBlend mode="normal" in="SourceGraphic" in2="effect1_dropShadow" result="shape"/>
</filter>
<filter id="filter1_d" x="1383.65" y="1037.31" width="1280.62" height="1300.23" filterUnits="userSpaceOnUse" color-interpolation-filters="sRGB">
<feFlood flood-opacity="0" result="BackgroundImageFix"/>
<feColorMatrix in="SourceAlpha" type="matrix" values="0 0 0 0 0 0 0 0 0 0 0 0 0 0 0 0 0 0 127 0"/>
<feOffset dy="4"/>
<feGaussianBlur stdDeviation="2"/>
<feColorMatrix type="matrix" values="0 0 0 0 0 0 0 0 0 0 0 0 0 0 0 0 0 0 0.25 0"/>
<feBlend mode="normal" in2="BackgroundImageFix" result="effect1_dropShadow"/>
<feBlend mode="normal" in="SourceGraphic" in2="effect1_dropShadow" result="shape"/>
</filter>
<filter id="filter2_d" x="516.843" y="537.113" width="1280.61" height="1300.19" filterUnits="userSpaceOnUse" color-interpolation-filters="sRGB">
<feFlood flood-opacity="0" result="BackgroundImageFix"/>
<feColorMatrix in="SourceAlpha" type="matrix" values="0 0 0 0 0 0 0 0 0 0 0 0 0 0 0 0 0 0 127 0"/>
<feOffset dy="4"/>
<feGaussianBlur stdDeviation="2"/>
<feColorMatrix type="matrix" values="0 0 0 0 0 0 0 0 0 0 0 0 0 0 0 0 0 0 0.25 0"/>
<feBlend mode="normal" in2="BackgroundImageFix" result="effect1_dropShadow"/>
<feBlend mode="normal" in="SourceGraphic" in2="effect1_dropShadow" result="shape"/>
</filter>
<filter id="filter3_d" x="383.339" y="584.253" width="666.58" height="672.762" filterUnits="userSpaceOnUse" color-interpolation-filters="sRGB">
<feFlood flood-opacity="0" result="BackgroundImageFix"/>
<feColorMatrix in="SourceAlpha" type="matrix" values="0 0 0 0 0 0 0 0 0 0 0 0 0 0 0 0 0 0 127 0"/>
<feOffset dy="4"/>
<feGaussianBlur stdDeviation="8"/>
<feColorMatrix type="matrix" values="0 0 0 0 0 0 0 0 0 0 0 0 0 0 0 0 0 0 0.65 0"/>
<feBlend mode="normal" in2="BackgroundImageFix" result="effect1_dropShadow"/>
<feBlend mode="normal" in="SourceGraphic" in2="effect1_dropShadow" result="shape"/>
</filter>
<filter id="filter4_d" x="2027" y="1603" width="575.547" height="894.578" filterUnits="userSpaceOnUse" color-interpolation-filters="sRGB">
<feFlood flood-opacity="0" result="BackgroundImageFix"/>
<feColorMatrix in="SourceAlpha" type="matrix" values="0 0 0 0 0 0 0 0 0 0 0 0 0 0 0 0 0 0 127 0"/>
<feOffset dy="4"/>
<feGaussianBlur stdDeviation="8"/>
<feColorMatrix type="matrix" values="0 0 0 0 0 0 0 0 0 0 0 0 0 0 0 0 0 0 0.65 0"/>
<feBlend mode="normal" in2="BackgroundImageFix" result="effect1_dropShadow"/>
<feBlend mode="normal" in="SourceGraphic" in2="effect1_dropShadow" result="shape"/>
</filter>
</defs>
</svg>
